<svg width="40" height="40" viewBox="0 0 40 40" fill="none" xmlns="http://www.w3.org/2000/svg">
<g id="&#230;&#158;&#129;&#233;&#128;&#159;&#230;&#181;&#143;&#232;&#167;&#136;&#229;&#153;&#168;">
<g clip-path="url(#clip0_104_22)">
<rect width="40" height="40" rx="20" fill="white"/>
<g id="Group">
<path id="Vector" d="M38.8906 13.4062H24.1875C26.375 14.7969 27.8125 17.2344 27.8125 20C27.8125 21.625 27.3125 23.125 26.4688 24.375L17.5312 39.8438C18.3438 39.9375 19.1563 40 20 40C31.0469 40 40 31.0469 40 20C40 17.6875 39.6094 15.4688 38.8906 13.4062Z" fill="#FCBF00"/>
<path id="Vector_2" d="M13.0469 23.5469L4.03125 7.95312C1.5 11.2969 0 15.4688 0 20C0 29.7656 7 37.8906 16.25 39.6406L23.5938 26.9375C22.5156 27.5 21.2969 27.8125 20 27.8125C16.9688 27.8125 14.3281 26.0781 13.0469 23.5469Z" fill="#44AB47"/>
<path id="Vector_3" d="M12.2031 19.6562C12.375 15.5 15.7969 12.1875 20 12.1875H38.4219C35.375 5.03125 28.2813 0 20 0C13.9531 0 8.51563 2.6875 4.85938 6.9375L12.2031 19.6562Z" fill="#FF4033"/>
<path id="Vector_4" d="M21.8125 13.8438L15.4844 20.5312H18.6406L17.7656 25.4531L24.2344 19.0625H21L21.8125 13.8438Z" fill="#1E93C2"/>
</g>
</g>
</g>
<defs>
<clipPath id="clip0_104_22">
<rect width="40" height="40" rx="20" fill="white"/>
</clipPath>
</defs>
</svg>
